<svg width="512" height="512" viewBox="0 0 512 512" xmlns="http://www.w3.org/2000/svg">
  <rect width="512" height="512" rx="96" fill="#0a2540"/>
  <rect x="120" y="96" width="272" height="320" rx="16" fill="#ffffff"/>
  <rect x="152" y="150" width="208" height="18" rx="9" fill="#0a2540"/>
  <rect x="152" y="198" width="208" height="12" rx="6" fill="#9fb3c8"/>
  <rect x="152" y="228" width="180" height="12" rx="6" fill="#9fb3c8"/>
  <rect x="152" y="258" width="208" height="12" rx="6" fill="#9fb3c8"/>
  <rect x="152" y="288" width="150" height="12" rx="6" fill="#9fb3c8"/>
  <circle cx="356" cy="356" r="64" fill="#00a0e3"/>
  <path d="M356 330 a26 26 0 0 1 26 26 v18 a26 26 0 0 1 -52 0 v-18 a26 26 0 0 1 26 -26 z" fill="#ffffff"/>
  <rect x="350" y="392" width="12" height="20" fill="#ffffff"/>
  <rect x="334" y="408" width="44" height="10" rx="5" fill="#ffffff"/>
</svg>
